<?xml version="1.0" encoding="UTF-8"?>
<svg version="1.1" xmlns="http://www.w3.org/2000/svg" width="92" height="88">
<path d="M0 0 C1.12166565 -0.01606293 2.2433313 -0.03212585 3.39898682 -0.04867554 C8.53599238 -0.09307361 13.6729087 -0.13463804 18.81005859 -0.15722656 C21.52036415 -0.17054941 24.22991381 -0.19836902 26.93994141 -0.23925781 C30.84372875 -0.29815456 34.74715077 -0.31589976 38.65136719 -0.33056641 C39.86093079 -0.35323578 41.07049438 -0.37590515 42.31671143 -0.39926147 C51.69615141 -0.37569421 51.69615141 -0.37569421 55.38476562 2.60058594 C58.51585767 6.20643576 58.76778221 7.87404139 58.82861328 12.55712891 C58.84467621 13.67879456 58.86073914 14.80046021 58.87728882 15.95611572 C58.92168689 21.09312129 58.96325132 26.23003761 58.98583984 31.3671875 C58.99916269 34.07749305 59.0269823 36.78704271 59.06787109 39.49707031 C59.12676784 43.40085765 59.14451304 47.30427968 59.15917969 51.20849609 C59.18184906 52.41805969 59.20451843 53.62762329 59.22787476 54.87384033 C59.20430749 64.25328032 59.20430749 64.25328032 56.22802734 67.94189453 C52.62217752 71.07298658 50.95457189 71.32491111 46.27148438 71.38574219 C45.14981873 71.40180511 44.02815308 71.41786804 42.87249756 71.43441772 C37.73549199 71.4788158 32.59857567 71.52038023 27.46142578 71.54296875 C24.75112023 71.5562916 22.04157057 71.5841112 19.33154297 71.625 C15.42775563 71.68389674 11.5243336 71.70164195 7.62011719 71.71630859 C6.41055359 71.73897797 5.20098999 71.76164734 3.95477295 71.78500366 C-5.42466704 71.76143639 -5.42466704 71.76143639 -9.11328125 68.78515625 C-12.2443733 65.17930643 -12.49629783 63.5117008 -12.55712891 58.82861328 C-12.57319183 57.70694763 -12.58925476 56.58528198 -12.60580444 55.42962646 C-12.65020251 50.2926209 -12.69176695 45.15570458 -12.71435547 40.01855469 C-12.72767831 37.30824913 -12.75549792 34.59869947 -12.79638672 31.88867188 C-12.85528346 27.98488454 -12.87302867 24.08146251 -12.88769531 20.17724609 C-12.91036469 18.9676825 -12.93303406 17.7581189 -12.95639038 16.51190186 C-12.93282311 7.13246187 -12.93282311 7.13246187 -9.95654297 3.44384766 C-6.35069315 0.31275561 -4.68308752 0.06083107 0 0 Z " fill="#FF6A67" transform="translate(25.3642578125,8.80712890625)"/>
<path d="M0 0 C0.98178223 -0.00430527 0.98178223 -0.00430527 1.98339844 -0.00869751 C3.36524319 -0.01073618 4.74711693 -0.00521996 6.12890625 0.00732422 C8.2428445 0.02338314 10.35487113 0.00747149 12.46875 -0.01171875 C13.81250422 -0.00973628 15.15625724 -0.00589252 16.5 0 C17.72203125 0.00338379 18.9440625 0.00676758 20.203125 0.01025391 C23.25 0.3984375 23.25 0.3984375 25.15356445 1.75463867 C26.78466734 4.20002182 26.53977966 6.18801372 26.4375 9.0859375 C26.39689453 10.57673828 26.39689453 10.57673828 26.35546875 12.09765625 C26.32066406 12.85691406 26.28585938 13.61617187 26.25 14.3984375 C27.24 13.7384375 28.23 13.0784375 29.25 12.3984375 C31.4375 12.7734375 31.4375 12.7734375 33.25 13.3984375 C32.92 15.0484375 32.59 16.6984375 32.25 18.3984375 C30.08125748 17.89239758 28.25032373 17.39859937 26.25 16.3984375 C26.29640625 17.37425781 26.3428125 18.35007812 26.390625 19.35546875 C26.44476563 21.26392578 26.44476563 21.26392578 26.5 23.2109375 C26.54640625 24.47550781 26.5928125 25.74007812 26.640625 27.04296875 C26.25 30.3984375 26.25 30.3984375 24.5625 32.328125 C21.86477852 33.57673258 19.96335186 33.69823742 17 33.7109375 C11.62096218 34.02735149 8.86614616 35.55550928 4.90625 39.12109375 C3.25 40.3984375 3.25 40.3984375 0.25 40.3984375 C0.25 38.0884375 0.25 35.7784375 0.25 33.3984375 C-0.6575 33.4603125 -1.565 33.5221875 -2.5 33.5859375 C-6.19232347 33.37291884 -7.25066732 33.07013795 -9.75 30.3984375 C-10.140625 27.04296875 -10.140625 27.04296875 -10 23.2109375 C-9.96390625 21.93863281 -9.9278125 20.66632812 -9.890625 19.35546875 C-9.82101563 17.89173828 -9.82101563 17.89173828 -9.75 16.3984375 C-10.74 17.0584375 -11.73 17.7184375 -12.75 18.3984375 C-14.9375 18.0234375 -14.9375 18.0234375 -16.75 17.3984375 C-16.42 15.7484375 -16.09 14.0984375 -15.75 12.3984375 C-13.58125748 12.90447742 -11.75032373 13.39827563 -9.75 14.3984375 C-9.78480469 13.63917969 -9.81960937 12.87992188 -9.85546875 12.09765625 C-9.88253906 11.10378906 -9.90960937 10.10992187 -9.9375 9.0859375 C-9.97230469 8.09980469 -10.00710937 7.11367188 -10.04296875 6.09765625 C-9.75 3.3984375 -9.75 3.3984375 -8.65356445 1.75463867 C-5.80903562 -0.27195588 -3.46067897 0.00958258 0 0 Z " fill="#FFD9D9" transform="translate(39.75,24.6015625)"/>
<path d="M0 0 C7.92 0 15.84 0 24 0 C24 4.62 24 9.24 24 14 C16.08 14 8.16 14 0 14 C0 9.38 0 4.76 0 0 Z " fill="#FF6461" transform="translate(36,33)"/>
<path d="M0 0 C-0.33 1.65 -0.66 3.3 -1 5 C-3.38564077 4.42415568 -5.66682784 3.77772405 -8 3 C-8 2.34 -8 1.68 -8 1 C-4.93251126 -0.86240388 -3.40254489 -1.2151946 0 0 Z " fill="#FFEAEA" transform="translate(73,38)"/>
<path d="M0 0 C2.38564077 0.57584432 4.66682784 1.22227595 7 2 C7 2.66 7 3.32 7 4 C4.64561267 5.42944945 3.51967567 6.08661261 0.75 5.625 C0.1725 5.41875 -0.405 5.2125 -1 5 C-0.67 3.35 -0.34 1.7 0 0 Z " fill="#FFEAEA" transform="translate(24,37)"/>
<path d="M0 0 C1.98 0.495 1.98 0.495 4 1 C3.67 2.65 3.34 4.3 3 6 C1.68 5.67 0.36 5.34 -1 5 C-0.67 3.35 -0.34 1.7 0 0 Z " fill="#FFE6E6" transform="translate(54,37)"/>
<path d="M0 0 C1.98 0.495 1.98 0.495 4 1 C3.67 2.65 3.34 4.3 3 6 C1.68 5.67 0.36 5.34 -1 5 C-0.67 3.35 -0.34 1.7 0 0 Z " fill="#FFE6E6" transform="translate(39,37)"/>
</svg>
