<?xml version="1.0" encoding="UTF-8"?>
<svg version="1.1" xmlns="http://www.w3.org/2000/svg" width="263" height="259">
<path d="M0 0 C1.4912962 -0.00407523 2.98258938 -0.0094224 4.47387695 -0.01593018 C8.48831641 -0.02949548 12.50252211 -0.02435055 16.51696515 -0.01479292 C20.73852447 -0.00714132 24.96006518 -0.01425695 29.18162537 -0.01895142 C36.26679031 -0.02439247 43.3518611 -0.01726025 50.43701172 -0.00292969 C58.60435926 0.01339997 66.77148212 0.00809939 74.93882424 -0.0084089 C81.97868973 -0.02206345 89.01848796 -0.02392429 96.05836242 -0.0160929 C100.25098247 -0.01143893 104.44349721 -0.01072845 108.63611031 -0.02070236 C112.5785959 -0.02942806 116.52079433 -0.02324899 120.46324921 -0.00601959 C121.90187289 -0.00208472 123.34052115 -0.00313674 124.77913475 -0.00980759 C133.27366584 -0.04553724 140.71163973 0.6363352 148.76733398 3.38818359 C150.07968191 3.8234584 150.07968191 3.8234584 151.41854191 4.26752663 C158.43520963 6.68177562 163.97798524 10.83496308 169.76733398 15.38818359 C170.60780273 16.01724609 171.44827148 16.64630859 172.31420898 17.29443359 C184.11538247 27.36677275 191.78358162 43.46506998 193.05044365 58.8194828 C193.16159208 62.61132803 193.18510893 66.39731805 193.17138672 70.19018555 C193.177104 71.63558475 193.18407345 73.08097944 193.19218445 74.52636719 C193.20998374 78.41710178 193.20897238 82.30760921 193.20324206 86.19837213 C193.20013011 89.46329784 193.20626496 92.72818118 193.21228081 95.99310082 C193.22628177 103.7051539 193.22480256 111.41709611 193.21337891 119.12915039 C193.20190919 127.04653322 193.21596411 134.96357684 193.24277538 142.88091499 C193.26503487 149.71363063 193.27154662 156.5462406 193.26569897 163.37898988 C193.26235169 167.44435043 193.26459376 171.50949383 193.28195 175.57482338 C193.29758117 179.40247854 193.29328776 183.22963717 193.27464485 187.05727386 C193.27100278 188.44906975 193.2739367 189.84090378 193.28453064 191.23266411 C193.42615288 211.40329064 186.87436549 227.59684161 172.97045898 242.28662109 C158.99956058 255.48135848 141.98705966 260.02735897 123.21582031 259.88989258 C121.71437578 259.89368711 120.21293477 259.8991964 118.71150208 259.90626526 C114.6785108 259.920086 110.64595254 259.90914727 106.61298585 259.89255404 C102.3687531 259.87857889 98.12454233 259.88517739 93.8802948 259.88868713 C86.75997029 259.89137861 79.63981538 259.8780026 72.51953125 259.85473633 C64.3123713 259.82810258 56.10549411 259.82639323 47.89830571 259.83812469 C39.96612517 259.84893747 32.03404593 259.84269 24.1018734 259.82856941 C20.74209864 259.82284297 17.38239882 259.82286568 14.02262306 259.82763481 C10.06203843 259.83243942 6.10175995 259.82216033 2.14123344 259.80068016 C0.6961635 259.79516035 -0.74893615 259.79460225 -2.19400787 259.79963303 C-10.70271813 259.82552031 -18.16343657 259.14521391 -26.23266602 256.38818359 C-27.10740664 256.09810142 -27.98214727 255.80801924 -28.8833952 255.50914669 C-35.91404943 253.08966212 -41.42295297 248.93651679 -47.23266602 244.38818359 C-48.28454102 243.62505859 -49.33641602 242.86193359 -50.42016602 242.07568359 C-62.64449551 230.39465763 -70.13799939 214.25175172 -70.61361694 197.3692627 C-70.63124947 194.75785338 -70.63333131 192.14969315 -70.62084961 189.53857422 C-70.62492529 188.08830879 -70.6302727 186.63804647 -70.63677979 185.18778992 C-70.650341 181.28484778 -70.64520159 177.38214618 -70.63564253 173.47920036 C-70.62798734 169.37288697 -70.63510767 165.26659262 -70.63980103 161.16027832 C-70.64524165 154.26762233 -70.63811163 147.37506313 -70.6237793 140.48242188 C-70.60745603 132.54117083 -70.61274574 124.60015095 -70.62925851 116.65890551 C-70.64292186 109.81095432 -70.64476946 102.96307226 -70.63694251 96.11511183 C-70.63229252 92.03815395 -70.63156674 87.96130433 -70.64155197 83.88435364 C-70.65029039 80.04938377 -70.64407599 76.21470868 -70.6268692 72.37977028 C-70.62294072 70.98188069 -70.62397504 69.5839658 -70.6306572 68.18608665 C-70.71493471 48.74646728 -64.82192869 32.51563488 -51.23266602 18.38818359 C-36.72959456 4.47506758 -19.6520544 -0.09126761 0 0 Z " fill="#FDFEFE" transform="translate(70.232666015625,-0.38818359375)"/>
<path d="M0 0 C1.75733459 -0.00430527 1.75733459 -0.00430527 3.5501709 -0.00869751 C6.00724781 -0.01072318 8.4643414 -0.00529925 10.92138672 0.00732422 C14.64718246 0.02339838 18.37189359 0.00742296 22.09765625 -0.01171875 C24.50260652 -0.00973605 26.90755613 -0.00589184 29.3125 0 C30.40767944 -0.00607269 31.50285889 -0.01214539 32.63122559 -0.0184021 C40.46716837 0.05162293 47.59583152 1.3686752 55.15625 3.3984375 C55.15625 4.0584375 55.15625 4.7184375 55.15625 5.3984375 C56.39375 5.5634375 57.63125 5.7284375 58.90625 5.8984375 C73.71877994 9.20563758 86.22753432 23.22054605 94.15625 35.3984375 C99.2775846 44.75639927 101.43672574 53.96355354 102.09375 64.5234375 C102.17431641 65.39097656 102.25488281 66.25851563 102.33789062 67.15234375 C102.6079482 71.53327775 102.61970107 74.46865584 99.84765625 78.015625 C97.15625 80.3984375 97.15625 80.3984375 94.15625 80.3984375 C94.15625 81.0584375 94.15625 81.7184375 94.15625 82.3984375 C73.52891835 82.51524444 52.90164124 82.60341278 32.27404594 82.65749836 C22.6962567 82.68327887 13.11867296 82.71842648 3.54101562 82.77563477 C-4.80698403 82.82547441 -13.15483486 82.85772963 -21.50297916 82.86887997 C-25.92324617 82.87539781 -30.3430874 82.89071315 -34.76321793 82.92708778 C-38.92472848 82.9610563 -43.08563837 82.97148887 -47.2472744 82.96397591 C-48.7734917 82.96535009 -50.29972933 82.97527802 -51.82582664 82.99446487 C-64.79669515 83.14952532 -64.79669515 83.14952532 -68.79855347 79.98796082 C-70.84375 77.3984375 -70.84375 77.3984375 -70.84375 75.3984375 C-71.50375 75.3984375 -72.16375 75.3984375 -72.84375 75.3984375 C-73.1422907 65.86724922 -73.36157288 57.40527713 -69.84375 48.3984375 C-69.5653125 47.50898438 -69.286875 46.61953125 -69 45.703125 C-63.68818763 29.26398154 -50.65363828 15.8924035 -35.7109375 7.67578125 C-24.17605447 2.01951933 -12.7852859 -0.07089351 0 0 Z " fill="#253651" transform="translate(114.84375,144.6015625)"/>
<path d="M0 0 C12.89591674 7.37842325 22.25495271 17.94307588 27 32 C29.88044002 43.08875274 29.27007558 57.62943027 23.48828125 67.609375 C21.76035704 70.17213899 19.93292922 72.58886168 18 75 C17.17822266 76.06734375 17.17822266 76.06734375 16.33984375 77.15625 C10.9775152 83.74823781 4.12013119 89.25779176 -4 92 C-4.99 92 -5.98 92 -7 92 C-7 92.66 -7 93.32 -7 94 C-22.24684105 96.34566785 -39.09337969 96.37762121 -52 87 C-56.45827547 83.096472 -60.67313038 78.92792562 -64 74 C-64 73.34 -64 72.68 -64 72 C-64.66 72 -65.32 72 -66 72 C-66.63036226 70.33535403 -67.25397593 68.66815224 -67.875 67 C-68.22304687 66.071875 -68.57109375 65.14375 -68.9296875 64.1875 C-71.15926831 57.5475805 -72.34106459 51.5800649 -72.25 44.5625 C-72.24468262 43.82185303 -72.23936523 43.08120605 -72.23388672 42.31811523 C-72.00297997 29.00297997 -72.00297997 29.00297997 -68 25 C-67.608125 23.96875 -67.21625 22.9375 -66.8125 21.875 C-62.75284467 12.11970884 -52.44145456 3.18185463 -43.01953125 -1.2109375 C-42.35308594 -1.47132812 -41.68664062 -1.73171875 -41 -2 C-40.12601563 -2.35578125 -39.25203125 -2.7115625 -38.3515625 -3.078125 C-26.35312587 -6.37839428 -11.35599668 -4.73388152 0 0 Z " fill="#A1A9B5" transform="translate(152,31)"/>
<path d="M0 0 C-1.5830577 4.2742558 -4.50568404 6.26531794 -8 9 C-8 6 -8 6 -6.7578125 4.39453125 C-5.94957031 3.61142578 -5.94957031 3.61142578 -5.125 2.8125 C-4.59132813 2.28269531 -4.05765625 1.75289062 -3.5078125 1.20703125 C-2 0 -2 0 0 0 Z " fill="#655D66" transform="translate(67,162)"/>
</svg>
